# xmcd
#
# Track frame offsets: 
#        150
#        16012
#        31937
#        48928
#        64799
#        81070
#        97585
#        115800
#        135305
#        151672
#        168011
#        187365
#        205563
#
# Disc length: 3003 seconds
#
# Revision: 0
# Processed by: cddbd v1.5.2PL0 Copyright (c) Steve Scherf et al.
# Submitted via: ExactAudioCopy v0.99pb5
#
DISCID=8c0bb90d
DTITLE=Jarrod Birmingham - Jesus and Johnny Cash
DYEAR=2010
DGENRE=Country
TTITLE0=Jesus and Johnny Cash
TTITLE1=That's What Dancers Do (featuring Kevin Fowler)
TTITLE2=Whiskey Thinkin'
TTITLE3=Think About You
TTITLE4=Pure Blue Heartache
TTITLE5=Nobody Knows
TTITLE6=December Gone
TTITLE7=Nursing Home Song
TTITLE8=Live To See Another Day
TTITLE9=House of Stone
TTITLE10=There You Are
TTITLE11=Damn Good Time (featuring Chris Wall)
TTITLE12=Nothing To Prove
EXTD=
EXTT0=
EXTT1=
EXTT2=
EXTT3=
EXTT4=
EXTT5=
EXTT6=
EXTT7=
EXTT8=
EXTT9=
EXTT10=
EXTT11=
EXTT12=
PLAYORDER=
